<svg width="1200" height="820" viewBox="0 0 1200 820" fill="none" xmlns="http://www.w3.org/2000/svg">
  <rect width="1200" height="820" rx="44" fill="url(#paint0_linear)"/>
  <circle cx="978" cy="156" r="118" fill="white" fill-opacity="0.08"/>
  <path d="M0 548C96 520 175 512 268 548C361 584 448 612 546 578C644 544 734 480 829 488C924 496 1040 576 1200 566V820H0V548Z" fill="white" fill-opacity="0.1"/>
  <path d="M132 548H948L822 408H278L132 548Z" fill="white" fill-opacity="0.82"/>
  <path d="M234 548H878L780 448H330L234 548Z" fill="#D5B36A"/>
  <path d="M532 342H646V446H532V342Z" fill="#0F2D52"/>
  <path d="M0 622C95 596 171 594 256 622C341 650 438 678 536 648C634 618 720 558 823 562C926 566 1055 646 1200 636" stroke="white" stroke-opacity="0.42" stroke-width="16"/>
  <text x="72" y="108" fill="white" font-family="Manrope, Arial, sans-serif" font-size="30" font-weight="700">Replace with main vessel image</text>
  <text x="72" y="154" fill="white" fill-opacity="0.7" font-family="Manrope, Arial, sans-serif" font-size="24">assets/placeholder-hero.svg</text>
  <defs>
    <linearGradient id="paint0_linear" x1="66" y1="44" x2="1084" y2="744" gradientUnits="userSpaceOnUse">
      <stop stop-color="#0F2D52"/>
      <stop offset="1" stop-color="#4DB6B2"/>
    </linearGradient>
  </defs>
</svg>
